<svg xmlns="http://www.w3.org/2000/svg" viewBox="0 0 200 200" fill="none">
  <circle cx="100" cy="100" r="95" fill="#ffffff" />
  <circle cx="100" cy="100" r="90" stroke="#1E3A8A" stroke-width="6" />
  <circle cx="100" cy="100" r="80" stroke="#D97706" stroke-width="2" />
  <path d="M100 40 C 130 40, 150 50, 150 80 C 150 130, 100 160, 100 160 C 100 160, 50 130, 50 80 C 50 50, 70 40, 100 40 Z" fill="#1E3A8A" />
  <!-- Abstract sun/star motif -->
  <circle cx="100" cy="85" r="20" fill="#F59E0B" />
  <path d="M100 50 L105 65 L120 65 L108 75 L112 90 L100 80 L88 90 L92 75 L80 65 L95 65 Z" fill="#FEF3C7" />
  <path d="M70 120 C 85 110, 115 110, 130 120" stroke="#F59E0B" stroke-width="4" stroke-linecap="round" />
</svg>
